<svg width="360" height="608" viewBox="0 0 360 608" fill="none" xmlns="http://www.w3.org/2000/svg">
<g clip-path="url(#clip0_23_141)">
<g filter="url(#filter0_d_23_141)">
<path d="M300.397 316.251C300.941 317.354 299.377 318.243 298.663 317.237L154.742 114.406C154.404 113.929 154.549 113.275 155.057 112.987L189.206 93.5697C189.713 93.2812 190.368 93.4809 190.626 94.003L300.397 316.251Z" fill="#00E6F6" stroke="url(#paint0_linear_23_141)" stroke-opacity="0.45" stroke-width="23" stroke-miterlimit="1.30541"/>
<path d="M308.184 317.629C307.87 318.79 306.108 318.503 306.198 317.304L321.934 108.702C321.978 108.122 322.523 107.703 323.11 107.799L362.05 114.158C362.637 114.253 363.013 114.822 362.861 115.385L308.184 317.629Z" fill="#00E6F6" stroke="url(#paint1_linear_23_141)" stroke-opacity="0.45" stroke-width="23" stroke-miterlimit="1.30541"/>
<path d="M305.817 312.923C305.785 314.133 303.994 314.241 303.811 313.044L270.182 93.3247C270.094 92.7497 270.527 92.2245 271.117 92.189L310.54 89.8228C311.131 89.7873 311.626 90.2568 311.611 90.838L305.817 312.923Z" fill="#00E6F6" stroke="url(#paint2_linear_23_141)" stroke-opacity="0.45" stroke-width="23" stroke-miterlimit="1.30541"/>
<path d="M303.42 316.609C303.666 317.793 301.957 318.29 301.498 317.169L220.237 118.793C220.015 118.251 220.313 117.641 220.881 117.476L258.724 106.452C259.292 106.286 259.884 106.637 260.003 107.21L303.42 316.609Z" fill="#00E6F6" stroke="url(#paint3_linear_23_141)" stroke-opacity="0.45" stroke-width="23" stroke-miterlimit="1.30541"/>
<g filter="url(#filter1_dd_23_141)">
<path d="M317.534 331.101C316.397 330.643 316.923 328.977 318.127 329.223L543.622 375.215C544.206 375.334 544.558 375.916 544.383 376.472L531.792 416.353C531.616 416.909 530.989 417.196 530.438 416.974L317.534 331.101Z" fill="#00E6F6" shape-rendering="crispEdges"/>
<path d="M317.534 331.101C316.397 330.643 316.923 328.977 318.127 329.223L543.622 375.215C544.206 375.334 544.558 375.916 544.383 376.472L531.792 416.353C531.616 416.909 530.989 417.196 530.438 416.974L317.534 331.101Z" stroke="url(#paint4_linear_23_141)" stroke-opacity="0.45" stroke-width="23" stroke-miterlimit="1.30541" shape-rendering="crispEdges"/>
</g>
<path d="M305.046 327.249L421.702 101.82C421.964 101.314 422.612 101.129 423.117 101.418L448.66 115.987C449.165 116.275 449.318 116.916 448.994 117.388L305.046 327.249Z" fill="#00E6F6" stroke="url(#paint5_linear_23_141)" stroke-opacity="0.45" stroke-width="23" stroke-miterlimit="1.30541"/>
<path d="M310.12 317.144C309.59 318.233 307.9 317.62 308.227 316.458L368.086 103.947C368.243 103.389 368.858 103.083 369.415 103.285L406.429 116.713C406.986 116.915 407.247 117.539 406.992 118.062L310.12 317.144Z" fill="#00E6F6" stroke="url(#paint6_linear_23_141)" stroke-opacity="0.45" stroke-width="23" stroke-miterlimit="1.30541"/>
</g>
<g filter="url(#filter2_d_23_141)">
<path d="M302.22 326.753L124.123 143.562C123.719 143.147 123.753 142.488 124.197 142.124L146.874 123.553C147.318 123.189 147.989 123.271 148.338 123.732L302.22 326.753Z" fill="#00E6F6" stroke="url(#paint7_linear_23_141)" stroke-opacity="0.45" stroke-width="23" stroke-miterlimit="1.30541"/>
<path d="M294.216 318.716C295.091 319.572 293.935 320.912 292.921 320.217L108.095 193.544C107.607 193.21 107.516 192.542 107.898 192.099L133.333 162.608C133.714 162.165 134.405 162.139 134.825 162.551L294.216 318.716Z" fill="#00E6F6" stroke="url(#paint8_linear_23_141)" stroke-opacity="0.45" stroke-width="23" stroke-miterlimit="1.30541"/>
<path d="M294.215 320.741C295.224 321.421 294.353 322.944 293.231 322.461L102.004 240.216C101.458 239.982 101.239 239.339 101.531 238.83L120.787 205.198C121.078 204.689 121.754 204.535 122.244 204.865L294.215 320.741Z" fill="#00E6F6" stroke="url(#paint9_linear_23_141)" stroke-opacity="0.45" stroke-width="23" stroke-miterlimit="1.30541"/>
<path d="M289.629 321.67C290.796 322.095 290.282 323.824 289.063 323.574L30.4843 270.402C29.912 270.285 29.5651 269.711 29.7301 269.156L40.7412 232.123C40.9062 231.568 41.5137 231.265 42.0615 231.465L289.629 321.67Z" fill="#00E6F6" stroke="url(#paint10_linear_23_141)" stroke-opacity="0.45" stroke-width="23" stroke-miterlimit="1.30541"/>
<path d="M291.589 324.655C292.796 324.83 292.699 326.592 291.48 326.639L79.5437 334.774C78.9544 334.797 78.4739 334.311 78.5063 333.725L80.6302 295.265C80.6625 294.679 81.1938 294.246 81.7772 294.331L291.589 324.655Z" fill="#00E6F6" stroke="url(#paint11_linear_23_141)" stroke-opacity="0.45" stroke-width="23" stroke-miterlimit="1.30541"/>
<path d="M291.897 326.966C293.11 326.859 293.441 328.597 292.269 328.922L88.254 385.486C87.6875 385.643 87.1042 385.28 86.9942 384.703L79.7904 346.837C79.6805 346.259 80.0915 345.716 80.678 345.664L291.897 326.966Z" fill="#00E6F6" stroke="url(#paint12_linear_23_141)" stroke-opacity="0.45" stroke-width="23" stroke-miterlimit="1.30541"/>
</g>
<g filter="url(#filter3_d_23_141)">
<path d="M304.663 323.97L67.4047 424.742C66.8736 424.968 66.2557 424.704 66.0549 424.166L55.9318 397.039C55.731 396.501 56.0304 395.911 56.5858 395.75L304.663 323.97Z" fill="#00E6F6" stroke="url(#paint13_linear_23_141)" stroke-opacity="0.45" stroke-width="23" stroke-miterlimit="1.30541"/>
<path d="M294.133 328.59C295.252 328.083 296.153 329.611 295.142 330.301L110.059 456.523C109.574 456.854 108.901 456.706 108.604 456.202L88.9059 422.8C88.6089 422.297 88.8153 421.654 89.3523 421.411L294.133 328.59Z" fill="#00E6F6" stroke="url(#paint14_linear_23_141)" stroke-opacity="0.45" stroke-width="23" stroke-miterlimit="1.30541"/>
<path d="M295.833 329.52C296.836 328.819 298.005 330.14 297.149 331.007L146.035 483.867C145.621 484.286 144.929 484.269 144.54 483.83L118.73 454.662C118.342 454.223 118.425 453.552 118.91 453.213L295.833 329.52Z" fill="#00E6F6" stroke="url(#paint15_linear_23_141)" stroke-opacity="0.45" stroke-width="23" stroke-miterlimit="1.30541"/>
<path d="M296.758 332.081C297.576 331.168 299.017 332.197 298.375 333.235L181.887 521.446C181.578 521.945 180.901 522.083 180.424 521.743L148.534 498.989C148.057 498.649 147.986 497.978 148.38 497.538L296.758 332.081Z" fill="#00E6F6" stroke="url(#paint16_linear_23_141)" stroke-opacity="0.45" stroke-width="23" stroke-miterlimit="1.30541"/>
<path d="M299.114 332.817C299.704 331.754 301.327 332.428 300.95 333.58L236.297 530.95C236.113 531.51 235.484 531.8 234.941 531.574L198.603 516.468C198.059 516.242 197.837 515.599 198.124 515.082L299.114 332.817Z" fill="#00E6F6" stroke="url(#paint17_linear_23_141)" stroke-opacity="0.45" stroke-width="23" stroke-miterlimit="1.30541"/>
<path d="M301.404 333.276C301.721 332.105 303.459 332.388 303.369 333.596L288.095 540.285C288.051 540.873 287.51 541.3 286.928 541.205L247.967 534.866C247.385 534.771 247.015 534.196 247.169 533.627L301.404 333.276Z" fill="#00E6F6" stroke="url(#paint18_linear_23_141)" stroke-opacity="0.45" stroke-width="23" stroke-miterlimit="1.30541"/>
</g>
<g filter="url(#filter4_d_23_141)">
<path d="M304.936 324.499L320.74 576.562C320.776 577.138 320.319 577.625 319.742 577.625H290.13C289.553 577.625 289.096 577.138 289.132 576.562L304.936 324.499Z" fill="#00E6F6" stroke="url(#paint19_linear_23_141)" stroke-opacity="0.45" stroke-width="23" stroke-miterlimit="1.30541"/>
<path d="M305.766 335.579C305.66 334.365 307.409 334.067 307.73 335.244L365.93 548.324C366.085 548.891 365.719 549.465 365.14 549.564L326.219 556.202C325.64 556.301 325.097 555.882 325.045 555.297L305.766 335.579Z" fill="#00E6F6" stroke="url(#paint20_linear_23_141)" stroke-opacity="0.45" stroke-width="23" stroke-miterlimit="1.30541"/>
<path d="M307.235 334.419C306.901 333.253 308.558 332.638 309.102 333.727L404.565 524.697C404.829 525.225 404.58 525.857 404.028 526.061L367.104 539.755C366.552 539.959 365.936 539.648 365.774 539.083L307.235 334.419Z" fill="#00E6F6" stroke="url(#paint21_linear_23_141)" stroke-opacity="0.45" stroke-width="23" stroke-miterlimit="1.30541"/>
<path d="M310.109 334.631C309.51 333.57 310.999 332.596 311.777 333.541L454.255 506.491C454.629 506.945 454.528 507.612 454.037 507.933L421.22 529.392C420.729 529.713 420.059 529.55 419.771 529.04L310.109 334.631Z" fill="#00E6F6" stroke="url(#paint22_linear_23_141)" stroke-opacity="0.45" stroke-width="23" stroke-miterlimit="1.30541"/>
<path d="M311.633 332.702C310.818 331.805 312.039 330.531 313.01 331.264L480.797 458.047C481.268 458.402 481.323 459.077 480.915 459.502L453.951 487.645C453.543 488.07 452.85 488.062 452.455 487.627L311.633 332.702Z" fill="#00E6F6" stroke="url(#paint23_linear_23_141)" stroke-opacity="0.45" stroke-width="23" stroke-miterlimit="1.30541"/>
<path d="M312.94 330.781C311.936 330.099 312.822 328.569 313.938 329.058L507.521 413.737C508.061 413.974 508.273 414.617 507.978 415.126L488.557 448.662C488.262 449.171 487.588 449.326 487.102 448.996L312.94 330.781Z" fill="#00E6F6" stroke="url(#paint24_linear_23_141)" stroke-opacity="0.45" stroke-width="23" stroke-miterlimit="1.30541"/>
</g>
<g filter="url(#filter5_d_23_141)">
<path d="M313.893 326.764L570.985 355.241C571.563 355.305 571.967 355.833 571.865 356.395L566.74 384.837C566.639 385.399 566.075 385.761 565.509 385.629L313.893 326.764Z" fill="#00E6F6" stroke="url(#paint25_linear_23_141)" stroke-opacity="0.45" stroke-width="23" stroke-miterlimit="1.30541"/>
<path d="M324.56 327.896C323.338 327.782 323.34 326.039 324.562 325.928L534.01 306.894C534.603 306.84 535.115 307.297 535.115 307.879L535.07 346.41C535.069 346.992 534.556 347.448 533.963 347.393L324.56 327.896Z" fill="#00E6F6" stroke="url(#paint26_linear_23_141)" stroke-opacity="0.45" stroke-width="23" stroke-miterlimit="1.30541"/>
<path d="M324.397 326.264C323.171 326.381 322.834 324.664 324.019 324.332L533.168 265.669C533.741 265.508 534.331 265.862 534.442 266.432L541.859 304.285C541.971 304.855 541.557 305.396 540.964 305.453L324.397 326.264Z" fill="#00E6F6" stroke="url(#paint27_linear_23_141)" stroke-opacity="0.45" stroke-width="23" stroke-miterlimit="1.30541"/>
<path d="M325.516 323.333C324.341 323.73 323.61 322.116 324.702 321.535L533.05 210.581C533.571 210.304 534.223 210.519 534.462 211.047L550.43 246.313C550.669 246.841 550.393 247.456 549.832 247.645L325.516 323.333Z" fill="#00E6F6" stroke="url(#paint28_linear_23_141)" stroke-opacity="0.45" stroke-width="23" stroke-miterlimit="1.30541"/>
<path d="M323.3 321.766C322.251 322.396 321.181 321.006 322.092 320.198L479.109 180.846C479.551 180.453 480.242 180.515 480.6 180.979L504.328 211.78C504.686 212.244 504.555 212.909 504.046 213.215L323.3 321.766Z" fill="#00E6F6" stroke="url(#paint29_linear_23_141)" stroke-opacity="0.45" stroke-width="23" stroke-miterlimit="1.30541"/>
<path d="M321.241 320.591C320.373 321.437 319.006 320.339 319.69 319.345L432.723 154.97C433.057 154.484 433.746 154.383 434.206 154.753L464.685 179.236C465.145 179.606 465.177 180.285 464.752 180.699L321.241 320.591Z" fill="#00E6F6" stroke="url(#paint30_linear_23_141)" stroke-opacity="0.45" stroke-width="23" stroke-miterlimit="1.30541"/>
</g>
<ellipse cx="308" cy="323.5" rx="15" ry="15.5" fill="url(#paint31_radial_23_141)"/>
</g>
<defs>
<filter id="filter0_d_23_141" x="117.95" y="53.4251" width="463.127" height="399.982" filterUnits="userSpaceOnUse" color-interpolation-filters="sRGB">
<feFlood flood-opacity="0" result="BackgroundImageFix"/>
<feColorMatrix in="SourceAlpha" type="matrix" values="0 0 0 0 0 0 0 0 0 0 0 0 0 0 0 0 0 0 127 0" result="hardAlpha"/>
<feOffset/>
<feGaussianBlur stdDeviation="12.5"/>
<feComposite in2="hardAlpha" operator="out"/>
<feColorMatrix type="matrix" values="0 0 0 0 1 0 0 0 0 1 0 0 0 0 1 0 0 0 1 0"/>
<feBlend mode="normal" in2="BackgroundImageFix" result="effect1_dropShadow_23_141"/>
<feBlend mode="normal" in="SourceGraphic" in2="effect1_dropShadow_23_141" result="shape"/>
</filter>
<filter id="filter1_dd_23_141" x="301.215" y="317.803" width="258.862" height="118.605" filterUnits="userSpaceOnUse" color-interpolation-filters="sRGB">
<feFlood flood-opacity="0" result="BackgroundImageFix"/>
<feColorMatrix in="SourceAlpha" type="matrix" values="0 0 0 0 0 0 0 0 0 0 0 0 0 0 0 0 0 0 127 0" result="hardAlpha"/>
<feOffset dy="4"/>
<feGaussianBlur stdDeviation="2"/>
<feComposite in2="hardAlpha" operator="out"/>
<feColorMatrix type="matrix" values="0 0 0 0 0 0 0 0 0 0 0 0 0 0 0 0 0 0 0.25 0"/>
<feBlend mode="normal" in2="BackgroundImageFix" result="effect1_dropShadow_23_141"/>
<feColorMatrix in="SourceAlpha" type="matrix" values="0 0 0 0 0 0 0 0 0 0 0 0 0 0 0 0 0 0 127 0" result="hardAlpha"/>
<feOffset dy="4"/>
<feGaussianBlur stdDeviation="2"/>
<feComposite in2="hardAlpha" operator="out"/>
<feColorMatrix type="matrix" values="0 0 0 0 0 0 0 0 0 0 0 0 0 0 0 0 0 0 0.25 0"/>
<feBlend mode="normal" in2="effect1_dropShadow_23_141" result="effect2_dropShadow_23_141"/>
<feBlend mode="normal" in="SourceGraphic" in2="effect2_dropShadow_23_141" result="shape"/>
</filter>
<filter id="filter2_d_23_141" x="-6.89246" y="86.952" width="343.423" height="335.055" filterUnits="userSpaceOnUse" color-interpolation-filters="sRGB">
<feFlood flood-opacity="0" result="BackgroundImageFix"/>
<feColorMatrix in="SourceAlpha" type="matrix" values="0 0 0 0 0 0 0 0 0 0 0 0 0 0 0 0 0 0 127 0" result="hardAlpha"/>
<feOffset/>
<feGaussianBlur stdDeviation="12.5"/>
<feComposite in2="hardAlpha" operator="out"/>
<feColorMatrix type="matrix" values="0 0 0 0 1 0 0 0 0 1 0 0 0 0 1 0 0 0 1 0"/>
<feBlend mode="normal" in2="BackgroundImageFix" result="effect1_dropShadow_23_141"/>
<feBlend mode="normal" in="SourceGraphic" in2="effect1_dropShadow_23_141" result="shape"/>
</filter>
<filter id="filter3_d_23_141" x="19.2829" y="288.014" width="320.61" height="289.693" filterUnits="userSpaceOnUse" color-interpolation-filters="sRGB">
<feFlood flood-opacity="0" result="BackgroundImageFix"/>
<feColorMatrix in="SourceAlpha" type="matrix" values="0 0 0 0 0 0 0 0 0 0 0 0 0 0 0 0 0 0 127 0" result="hardAlpha"/>
<feOffset/>
<feGaussianBlur stdDeviation="12.5"/>
<feComposite in2="hardAlpha" operator="out"/>
<feColorMatrix type="matrix" values="0 0 0 0 1 0 0 0 0 1 0 0 0 0 1 0 0 0 1 0"/>
<feBlend mode="normal" in2="BackgroundImageFix" result="effect1_dropShadow_23_141"/>
<feBlend mode="normal" in="SourceGraphic" in2="effect1_dropShadow_23_141" result="shape"/>
</filter>
<filter id="filter4_d_23_141" x="252.63" y="292.457" width="292.087" height="321.668" filterUnits="userSpaceOnUse" color-interpolation-filters="sRGB">
<feFlood flood-opacity="0" result="BackgroundImageFix"/>
<feColorMatrix in="SourceAlpha" type="matrix" values="0 0 0 0 0 0 0 0 0 0 0 0 0 0 0 0 0 0 127 0" result="hardAlpha"/>
<feOffset/>
<feGaussianBlur stdDeviation="12.5"/>
<feComposite in2="hardAlpha" operator="out"/>
<feColorMatrix type="matrix" values="0 0 0 0 1 0 0 0 0 1 0 0 0 0 1 0 0 0 1 0"/>
<feBlend mode="normal" in2="BackgroundImageFix" result="effect1_dropShadow_23_141"/>
<feBlend mode="normal" in="SourceGraphic" in2="effect1_dropShadow_23_141" result="shape"/>
</filter>
<filter id="filter5_d_23_141" x="282.732" y="118.162" width="325.773" height="303.873" filterUnits="userSpaceOnUse" color-interpolation-filters="sRGB">
<feFlood flood-opacity="0" result="BackgroundImageFix"/>
<feColorMatrix in="SourceAlpha" type="matrix" values="0 0 0 0 0 0 0 0 0 0 0 0 0 0 0 0 0 0 127 0" result="hardAlpha"/>
<feOffset/>
<feGaussianBlur stdDeviation="12.5"/>
<feComposite in2="hardAlpha" operator="out"/>
<feColorMatrix type="matrix" values="0 0 0 0 1 0 0 0 0 1 0 0 0 0 1 0 0 0 1 0"/>
<feBlend mode="normal" in2="BackgroundImageFix" result="effect1_dropShadow_23_141"/>
<feBlend mode="normal" in="SourceGraphic" in2="effect1_dropShadow_23_141" result="shape"/>
</filter>
<linearGradient id="paint0_linear_23_141" x1="305.971" y1="327.536" x2="133.894" y2="24.9002" gradientUnits="userSpaceOnUse">
<stop stop-color="#082A3A"/>
<stop offset="0.0447915" stop-color="#1F6CAB"/>
<stop offset="0.716667" stop-color="#00E6F6"/>
<stop offset="1" stop-color="white"/>
</linearGradient>
<linearGradient id="paint1_linear_23_141" x1="305.395" y1="327.944" x2="352.692" y2="38.2836" gradientUnits="userSpaceOnUse">
<stop stop-color="#082A3A"/>
<stop offset="0.0447915" stop-color="#1F6CAB"/>
<stop offset="0.716667" stop-color="#00E6F6"/>
<stop offset="1" stop-color="white"/>
</linearGradient>
<linearGradient id="paint2_linear_23_141" x1="305.522" y1="324.226" x2="286.854" y2="13.2106" gradientUnits="userSpaceOnUse">
<stop stop-color="#082A3A"/>
<stop offset="0.0447915" stop-color="#1F6CAB"/>
<stop offset="0.716667" stop-color="#00E6F6"/>
<stop offset="1" stop-color="white"/>
</linearGradient>
<linearGradient id="paint3_linear_23_141" x1="305.625" y1="327.245" x2="221.687" y2="39.0889" gradientUnits="userSpaceOnUse">
<stop stop-color="#082A3A"/>
<stop offset="0.0447915" stop-color="#1F6CAB"/>
<stop offset="0.716667" stop-color="#00E6F6"/>
<stop offset="1" stop-color="white"/>
</linearGradient>
<linearGradient id="paint4_linear_23_141" x1="307.505" y1="327.056" x2="613.631" y2="423.705" gradientUnits="userSpaceOnUse">
<stop stop-color="#082A3A"/>
<stop offset="0.0447915" stop-color="#1F6CAB"/>
<stop offset="0.716667" stop-color="#00E6F6"/>
<stop offset="1" stop-color="white"/>
</linearGradient>
<linearGradient id="paint5_linear_23_141" x1="305.046" y1="327.249" x2="473.278" y2="32.3033" gradientUnits="userSpaceOnUse">
<stop stop-color="#082A3A"/>
<stop offset="0.0447915" stop-color="#1F6CAB"/>
<stop offset="0.716667" stop-color="#00E6F6"/>
<stop offset="1" stop-color="white"/>
</linearGradient>
<linearGradient id="paint6_linear_23_141" x1="305.167" y1="327.323" x2="410.896" y2="35.8849" gradientUnits="userSpaceOnUse">
<stop stop-color="#082A3A"/>
<stop offset="0.0447915" stop-color="#1F6CAB"/>
<stop offset="0.716667" stop-color="#00E6F6"/>
<stop offset="1" stop-color="white"/>
</linearGradient>
<linearGradient id="paint7_linear_23_141" x1="302.22" y1="326.753" x2="86.2639" y2="63.0493" gradientUnits="userSpaceOnUse">
<stop stop-color="#082A3A"/>
<stop offset="0.0447915" stop-color="#1F6CAB"/>
<stop offset="0.716667" stop-color="#00E6F6"/>
<stop offset="1" stop-color="white"/>
</linearGradient>
<linearGradient id="paint8_linear_23_141" x1="302.332" y1="326.667" x2="64.9295" y2="121.916" gradientUnits="userSpaceOnUse">
<stop stop-color="#082A3A"/>
<stop offset="0.0447915" stop-color="#1F6CAB"/>
<stop offset="0.716667" stop-color="#00E6F6"/>
<stop offset="1" stop-color="white"/>
</linearGradient>
<linearGradient id="paint9_linear_23_141" x1="303.009" y1="326.667" x2="50.195" y2="181.915" gradientUnits="userSpaceOnUse">
<stop stop-color="#082A3A"/>
<stop offset="0.0447915" stop-color="#1F6CAB"/>
<stop offset="0.716667" stop-color="#00E6F6"/>
<stop offset="1" stop-color="white"/>
</linearGradient>
<linearGradient id="paint10_linear_23_141" x1="302.358" y1="326.308" x2="-52.4374" y2="220.817" gradientUnits="userSpaceOnUse">
<stop stop-color="#082A3A"/>
<stop offset="0.0447915" stop-color="#1F6CAB"/>
<stop offset="0.716667" stop-color="#00E6F6"/>
<stop offset="1" stop-color="white"/>
</linearGradient>
<linearGradient id="paint11_linear_23_141" x1="302.412" y1="326.219" x2="5.32972" y2="309.813" gradientUnits="userSpaceOnUse">
<stop stop-color="#082A3A"/>
<stop offset="0.0447915" stop-color="#1F6CAB"/>
<stop offset="0.716667" stop-color="#00E6F6"/>
<stop offset="1" stop-color="white"/>
</linearGradient>
<linearGradient id="paint12_linear_23_141" x1="302.809" y1="326" x2="10.7368" y2="381.566" gradientUnits="userSpaceOnUse">
<stop stop-color="#082A3A"/>
<stop offset="0.0447915" stop-color="#1F6CAB"/>
<stop offset="0.716667" stop-color="#00E6F6"/>
<stop offset="1" stop-color="white"/>
</linearGradient>
<linearGradient id="paint13_linear_23_141" x1="304.663" y1="323.97" x2="-18.3521" y2="444.512" gradientUnits="userSpaceOnUse">
<stop stop-color="#082A3A"/>
<stop offset="0.0447915" stop-color="#1F6CAB"/>
<stop offset="0.716667" stop-color="#00E6F6"/>
<stop offset="1" stop-color="white"/>
</linearGradient>
<linearGradient id="paint14_linear_23_141" x1="304.619" y1="323.837" x2="33.4825" y2="483.735" gradientUnits="userSpaceOnUse">
<stop stop-color="#082A3A"/>
<stop offset="0.0447915" stop-color="#1F6CAB"/>
<stop offset="0.716667" stop-color="#00E6F6"/>
<stop offset="1" stop-color="white"/>
</linearGradient>
<linearGradient id="paint15_linear_23_141" x1="304.85" y1="323.217" x2="78.6928" y2="523.342" gradientUnits="userSpaceOnUse">
<stop stop-color="#082A3A"/>
<stop offset="0.0447915" stop-color="#1F6CAB"/>
<stop offset="0.716667" stop-color="#00E6F6"/>
<stop offset="1" stop-color="white"/>
</linearGradient>
<linearGradient id="paint16_linear_23_141" x1="304.282" y1="323.691" x2="123.719" y2="576.758" gradientUnits="userSpaceOnUse">
<stop stop-color="#082A3A"/>
<stop offset="0.0447915" stop-color="#1F6CAB"/>
<stop offset="0.716667" stop-color="#00E6F6"/>
<stop offset="1" stop-color="white"/>
</linearGradient>
<linearGradient id="paint17_linear_23_141" x1="304.215" y1="323.611" x2="192.325" y2="592.778" gradientUnits="userSpaceOnUse">
<stop stop-color="#082A3A"/>
<stop offset="0.0447915" stop-color="#1F6CAB"/>
<stop offset="0.716667" stop-color="#00E6F6"/>
<stop offset="1" stop-color="white"/>
</linearGradient>
<linearGradient id="paint18_linear_23_141" x1="304.14" y1="323.172" x2="257.471" y2="610.023" gradientUnits="userSpaceOnUse">
<stop stop-color="#082A3A"/>
<stop offset="0.0447915" stop-color="#1F6CAB"/>
<stop offset="0.716667" stop-color="#00E6F6"/>
<stop offset="1" stop-color="white"/>
</linearGradient>
<linearGradient id="paint19_linear_23_141" x1="304.936" y1="324.499" x2="304.936" y2="662" gradientUnits="userSpaceOnUse">
<stop stop-color="#082A3A"/>
<stop offset="0.0447915" stop-color="#1F6CAB"/>
<stop offset="0.716667" stop-color="#00E6F6"/>
<stop offset="1" stop-color="white"/>
</linearGradient>
<linearGradient id="paint20_linear_23_141" x1="304.794" y1="324.493" x2="356.803" y2="629.44" gradientUnits="userSpaceOnUse">
<stop stop-color="#082A3A"/>
<stop offset="0.0447915" stop-color="#1F6CAB"/>
<stop offset="0.716667" stop-color="#00E6F6"/>
<stop offset="1" stop-color="white"/>
</linearGradient>
<linearGradient id="paint21_linear_23_141" x1="304.275" y1="324.07" x2="408.158" y2="604.191" gradientUnits="userSpaceOnUse">
<stop stop-color="#082A3A"/>
<stop offset="0.0447915" stop-color="#1F6CAB"/>
<stop offset="0.716667" stop-color="#00E6F6"/>
<stop offset="1" stop-color="white"/>
</linearGradient>
<linearGradient id="paint22_linear_23_141" x1="304.537" y1="324.753" x2="476.115" y2="587.142" gradientUnits="userSpaceOnUse">
<stop stop-color="#082A3A"/>
<stop offset="0.0447915" stop-color="#1F6CAB"/>
<stop offset="0.716667" stop-color="#00E6F6"/>
<stop offset="1" stop-color="white"/>
</linearGradient>
<linearGradient id="paint23_linear_23_141" x1="304.438" y1="324.787" x2="516.846" y2="528.302" gradientUnits="userSpaceOnUse">
<stop stop-color="#082A3A"/>
<stop offset="0.0447915" stop-color="#1F6CAB"/>
<stop offset="0.716667" stop-color="#00E6F6"/>
<stop offset="1" stop-color="white"/>
</linearGradient>
<linearGradient id="paint24_linear_23_141" x1="303.989" y1="324.706" x2="559.951" y2="472.935" gradientUnits="userSpaceOnUse">
<stop stop-color="#082A3A"/>
<stop offset="0.0447915" stop-color="#1F6CAB"/>
<stop offset="0.716667" stop-color="#00E6F6"/>
<stop offset="1" stop-color="white"/>
</linearGradient>
<linearGradient id="paint25_linear_23_141" x1="313.893" y1="326.764" x2="653.933" y2="388.044" gradientUnits="userSpaceOnUse">
<stop stop-color="#082A3A"/>
<stop offset="0.0447915" stop-color="#1F6CAB"/>
<stop offset="0.716667" stop-color="#00E6F6"/>
<stop offset="1" stop-color="white"/>
</linearGradient>
<linearGradient id="paint26_linear_23_141" x1="313.863" y1="326.9" x2="608.835" y2="327.242" gradientUnits="userSpaceOnUse">
<stop stop-color="#082A3A"/>
<stop offset="0.0447915" stop-color="#1F6CAB"/>
<stop offset="0.716667" stop-color="#00E6F6"/>
<stop offset="1" stop-color="white"/>
</linearGradient>
<linearGradient id="paint27_linear_23_141" x1="313.345" y1="327.325" x2="612.562" y2="268.695" gradientUnits="userSpaceOnUse">
<stop stop-color="#082A3A"/>
<stop offset="0.0447915" stop-color="#1F6CAB"/>
<stop offset="0.716667" stop-color="#00E6F6"/>
<stop offset="1" stop-color="white"/>
</linearGradient>
<linearGradient id="paint28_linear_23_141" x1="314.08" y1="327.192" x2="616.118" y2="190.433" gradientUnits="userSpaceOnUse">
<stop stop-color="#082A3A"/>
<stop offset="0.0447915" stop-color="#1F6CAB"/>
<stop offset="0.716667" stop-color="#00E6F6"/>
<stop offset="1" stop-color="white"/>
</linearGradient>
<linearGradient id="paint29_linear_23_141" x1="314.097" y1="327.293" x2="547.731" y2="147.306" gradientUnits="userSpaceOnUse">
<stop stop-color="#082A3A"/>
<stop offset="0.0447915" stop-color="#1F6CAB"/>
<stop offset="0.716667" stop-color="#00E6F6"/>
<stop offset="1" stop-color="white"/>
</linearGradient>
<linearGradient id="paint30_linear_23_141" x1="313.938" y1="327.71" x2="489.422" y2="109.252" gradientUnits="userSpaceOnUse">
<stop stop-color="#082A3A"/>
<stop offset="0.0447915" stop-color="#1F6CAB"/>
<stop offset="0.716667" stop-color="#00E6F6"/>
<stop offset="1" stop-color="white"/>
</linearGradient>
<radialGradient id="paint31_radial_23_141" cx="0" cy="0" r="1" gradientUnits="userSpaceOnUse" gradientTransform="translate(308 323.5) rotate(90) scale(15.5 15)">
<stop offset="0.177506" stop-color="#1F6CAB"/>
<stop offset="1" stop-color="#082A3A"/>
<stop offset="1" stop-color="#D9D9D9" stop-opacity="0"/>
</radialGradient>
<clipPath id="clip0_23_141">
<rect width="636" height="608" fill="white"/>
</clipPath>
</defs>
</svg>
