<svg width="60" height="60" viewBox="0 0 60 60" fill="none" xmlns="http://www.w3.org/2000/svg">
<circle cx="30" cy="30" r="29.5" fill="#082A3A" stroke="url(#paint0_linear_96_129)"/>
<path d="M25.7142 38.5978C25.7142 40.6042 23.3142 42.2292 20.3571 42.2292C17.3999 42.2292 14.9999 40.6042 14.9999 38.5978C14.9999 36.5933 17.3999 34.9664 20.3571 34.9664C23.3142 34.9664 25.7142 36.5933 25.7142 38.5978ZM44.9999 34.9664C44.9999 36.9727 42.5999 38.5978 39.6428 38.5978C36.6856 38.5978 34.2856 36.9727 34.2856 34.9664C34.2856 32.96 36.6856 31.335 39.6428 31.335C42.5999 31.335 44.9999 32.96 44.9999 34.9664Z" fill="#00E6F6"/>
<path fill-rule="evenodd" clip-rule="evenodd" d="M42.8571 34.9665V18.6251H44.9999V34.9665H42.8571ZM25.7142 20.4408V38.5979H23.5714V20.4408H25.7142Z" fill="#00E6F6"/>
<path d="M23.5714 20.2683C23.5713 19.8182 23.7687 19.3841 24.125 19.0503C24.4814 18.7164 24.9714 18.5067 25.4999 18.4617L42.6428 17.0091C42.9408 16.9837 43.2417 17.0116 43.5262 17.0908C43.8107 17.17 44.0724 17.2989 44.2945 17.4692C44.5166 17.6394 44.6942 17.8472 44.8157 18.0791C44.9372 18.311 44.9999 18.562 44.9999 18.8157V20.4408L23.5714 22.2565V20.2683Z" fill="#00E6F6"/>
<defs>
<linearGradient id="paint0_linear_96_129" x1="58.1053" y1="2.46951" x2="-5.25403" y2="50.7155" gradientUnits="userSpaceOnUse">
<stop stop-color="white"/>
<stop offset="0.125" stop-color="#00E6F6"/>
<stop offset="0.291667" stop-color="#1F6CAB"/>
<stop offset="1" stop-color="#082A3A"/>
</linearGradient>
</defs>
</svg>
