<svg width="60" height="60" viewBox="0 0 60 60" fill="none" xmlns="http://www.w3.org/2000/svg">
<circle cx="30" cy="30" r="29.5" fill="#082A3A" stroke="url(#paint0_linear_96_136)"/>
<g clip-path="url(#clip0_96_136)">
<path d="M15 28.4926V38.8051C15 39.1402 15.3356 39.4117 15.75 39.4117H19.5V27.2794H16.5C15.6717 27.2794 15 27.8227 15 28.4926ZM31.875 26.6727H30.75V25.1562C30.75 24.9886 30.5822 24.8529 30.375 24.8529H29.625C29.4178 24.8529 29.25 24.9886 29.25 25.1562V27.5827C29.25 27.7502 29.4178 27.886 29.625 27.886H31.875C32.0822 27.886 32.25 27.7502 32.25 27.5827V26.976C32.25 26.8085 32.0822 26.6727 31.875 26.6727ZM38.332 24.2478L30.832 20.2035C30.5856 20.0708 30.2961 19.9999 30 19.9999C29.7039 19.9999 29.4144 20.0708 29.168 20.2035L21.668 24.2478C21.4625 24.3586 21.2941 24.5086 21.1776 24.6847C21.061 24.8607 21.0001 25.0573 21 25.257V39.4117H27V33.9521C27 33.617 27.3356 33.3455 27.75 33.3455H32.25C32.6644 33.3455 33 33.617 33 33.9521V39.4117H39V25.2574C39 24.8517 38.7492 24.4726 38.332 24.2478ZM30 29.7058C27.9291 29.7058 26.25 28.3478 26.25 26.6727C26.25 24.9977 27.9291 23.6396 30 23.6396C32.0709 23.6396 33.75 24.9977 33.75 26.6727C33.75 28.3478 32.0709 29.7058 30 29.7058ZM43.5 27.2794H40.5V39.4117H44.25C44.6644 39.4117 45 39.1402 45 38.8051V28.4926C45 27.8227 44.3283 27.2794 43.5 27.2794Z" fill="#00E6F6"/>
</g>
<defs>
<linearGradient id="paint0_linear_96_136" x1="58.1053" y1="2.46951" x2="-5.25403" y2="50.7155" gradientUnits="userSpaceOnUse">
<stop stop-color="white"/>
<stop offset="0.125" stop-color="#00E6F6"/>
<stop offset="0.291667" stop-color="#1F6CAB"/>
<stop offset="1" stop-color="#082A3A"/>
</linearGradient>
<clipPath id="clip0_96_136">
<rect width="30" height="19.4118" fill="white" transform="translate(15 20)"/>
</clipPath>
</defs>
</svg>
